<svg width="506" height="200" viewBox="0 0 506 200" fill="none" xmlns="http://www.w3.org/2000/svg">
<rect width="506" height="200" fill="#D13B00"/>
<circle cx="84" cy="100" r="55" stroke="url(#paint0_linear_523_4410)" stroke-width="2"/>
<circle cx="84" cy="100" r="47" stroke="url(#paint1_linear_523_4410)" stroke-width="2" stroke-linejoin="bevel" stroke-dasharray="2 2"/>
<path d="M84 68.6396C86.1279 75.3621 89.4664 81.9357 93.6914 87.3662C97.8626 92.7275 102.943 97.0305 108.624 99.2148C102.943 101.399 97.8627 105.703 93.6914 111.064C89.4668 116.494 86.1279 123.067 84 129.789C81.8721 123.067 78.5332 116.494 74.3086 111.064C70.1371 105.703 65.0566 101.399 59.375 99.2148C65.0565 97.0306 70.1372 92.7278 74.3086 87.3662C78.5336 81.9357 81.8721 75.3621 84 68.6396Z" stroke="url(#paint2_linear_523_4410)" stroke-width="2"/>
<circle cx="253" cy="100" r="55" stroke="url(#paint3_linear_523_4410)" stroke-width="2"/>
<circle cx="253" cy="100" r="47" stroke="url(#paint4_linear_523_4410)" stroke-width="2" stroke-linejoin="bevel" stroke-dasharray="2 2"/>
<path d="M253 68.6396C255.128 75.3621 258.466 81.9357 262.691 87.3662C266.863 92.7275 271.943 97.0305 277.624 99.2148C271.943 101.399 266.863 105.703 262.691 111.064C258.467 116.494 255.128 123.067 253 129.789C250.872 123.067 247.533 116.494 243.309 111.064C239.137 105.703 234.057 101.399 228.375 99.2148C234.056 97.0306 239.137 92.7278 243.309 87.3662C247.534 81.9357 250.872 75.3621 253 68.6396Z" stroke="url(#paint5_linear_523_4410)" stroke-width="2"/>
<circle cx="422" cy="100" r="55" stroke="url(#paint6_linear_523_4410)" stroke-width="2"/>
<circle cx="422" cy="100" r="47" stroke="url(#paint7_linear_523_4410)" stroke-width="2" stroke-linejoin="bevel" stroke-dasharray="2 2"/>
<path d="M422 68.6396C424.128 75.3621 427.466 81.9357 431.691 87.3662C435.863 92.7275 440.943 97.0305 446.624 99.2148C440.943 101.399 435.863 105.703 431.691 111.064C427.467 116.494 424.128 123.067 422 129.789C419.872 123.067 416.533 116.494 412.309 111.064C408.137 105.703 403.057 101.399 397.375 99.2148C403.056 97.0306 408.137 92.7278 412.309 87.3662C416.534 81.9357 419.872 75.3621 422 68.6396Z" stroke="url(#paint8_linear_523_4410)" stroke-width="2"/>
<defs>
<linearGradient id="paint0_linear_523_4410" x1="64.75" y1="44" x2="123.375" y2="159.5" gradientUnits="userSpaceOnUse">
<stop offset="0.0246751" stop-color="white"/>
<stop offset="1" stop-color="white" stop-opacity="0"/>
</linearGradient>
<linearGradient id="paint1_linear_523_4410" x1="67.5" y1="52" x2="117.75" y2="151" gradientUnits="userSpaceOnUse">
<stop offset="0.0246751" stop-color="white"/>
<stop offset="1" stop-color="white" stop-opacity="0"/>
</linearGradient>
<linearGradient id="paint2_linear_523_4410" x1="78.75" y1="71.125" x2="102.375" y2="133.25" gradientUnits="userSpaceOnUse">
<stop stop-color="white"/>
<stop offset="1" stop-color="white" stop-opacity="0"/>
</linearGradient>
<linearGradient id="paint3_linear_523_4410" x1="233.75" y1="44" x2="292.375" y2="159.5" gradientUnits="userSpaceOnUse">
<stop offset="0.0246751" stop-color="white"/>
<stop offset="1" stop-color="white" stop-opacity="0"/>
</linearGradient>
<linearGradient id="paint4_linear_523_4410" x1="236.5" y1="52" x2="286.75" y2="151" gradientUnits="userSpaceOnUse">
<stop offset="0.0246751" stop-color="white"/>
<stop offset="1" stop-color="white" stop-opacity="0"/>
</linearGradient>
<linearGradient id="paint5_linear_523_4410" x1="247.75" y1="71.125" x2="271.375" y2="133.25" gradientUnits="userSpaceOnUse">
<stop stop-color="white"/>
<stop offset="1" stop-color="white" stop-opacity="0"/>
</linearGradient>
<linearGradient id="paint6_linear_523_4410" x1="402.75" y1="44" x2="461.375" y2="159.5" gradientUnits="userSpaceOnUse">
<stop offset="0.0246751" stop-color="white"/>
<stop offset="1" stop-color="white" stop-opacity="0"/>
</linearGradient>
<linearGradient id="paint7_linear_523_4410" x1="405.5" y1="52" x2="455.75" y2="151" gradientUnits="userSpaceOnUse">
<stop offset="0.0246751" stop-color="white"/>
<stop offset="1" stop-color="white" stop-opacity="0"/>
</linearGradient>
<linearGradient id="paint8_linear_523_4410" x1="416.75" y1="71.125" x2="440.375" y2="133.25" gradientUnits="userSpaceOnUse">
<stop stop-color="white"/>
<stop offset="1" stop-color="white" stop-opacity="0"/>
</linearGradient>
</defs>
</svg>
