<svg width="506" height="200" viewBox="0 0 506 200" fill="none" xmlns="http://www.w3.org/2000/svg">
<g clip-path="url(#clip0_523_4384)">
<path fill-rule="evenodd" clip-rule="evenodd" d="M84.8 163.992C100.651 163.689 114.754 154.382 123.982 139.982C137.651 131.222 146.731 118.07 147.877 103.2C147.959 102.353 148 101.5 148 100.64L148 100.52C147.999 100.465 147.999 100.41 147.998 100.356L148 100.178L148 100L148 99.8L148 99.68C148 99.5197 147.997 99.3597 147.992 99.2C147.689 83.3494 138.382 69.246 123.982 60.0181C114.754 45.6181 100.651 36.3111 84.8 36.0077C84.6403 36.0026 84.4803 36 84.32 36L84.2 36.0005L84 36C83.8814 36 83.7629 36.0005 83.6444 36.0015C83.5497 36.0005 83.4549 36 83.36 36C82.5002 36 81.6466 36.0414 80.8 36.123C65.9301 37.2692 52.7775 46.3491 44.0181 60.0181C29.6181 69.246 20.3111 83.3494 20.0077 99.2C20.0026 99.3597 20 99.5197 20 99.68L20.0005 99.8L20 100C20 100.119 20.0005 100.237 20.0015 100.356C20.0005 100.45 20 100.545 20 100.64C20 101.5 20.0414 102.353 20.123 103.2C21.2692 118.07 30.3491 131.222 44.0181 139.982C52.7775 153.651 65.9301 162.731 80.8 163.877C81.6466 163.959 82.5002 164 83.36 164L83.4796 164C83.5346 163.999 83.5895 163.999 83.6444 163.998L83.8223 164L84 164L84.2 164L84.32 164C84.4803 164 84.6403 163.997 84.8 163.992ZM93.1702 162.153C104.753 159.475 114.987 151.819 122.363 140.986C119.054 142.972 115.496 144.706 111.735 146.156C106.634 153.814 100.265 159.428 93.1702 162.153ZM145.148 112.767C141.835 122.867 134.683 131.761 124.986 138.363C126.664 135.567 128.162 132.594 129.461 129.471C136.618 124.849 142.066 119.141 145.148 112.767ZM123.405 139.405C125.233 136.536 126.867 133.462 128.281 130.214C124.977 132.24 121.333 134.043 117.411 135.582C115.96 138.966 114.308 142.121 112.481 145.007C116.373 143.437 120.031 141.555 123.405 139.405ZM146.635 106.022C144.843 114.483 138.883 122.165 129.989 128.164C131.071 125.408 131.999 122.54 132.76 119.579C139.542 115.754 144.405 111.121 146.635 106.022ZM128.824 128.929C129.985 126.107 130.982 123.161 131.798 120.109C128.622 121.82 125.053 123.359 121.16 124.694C120.236 128.142 119.125 131.437 117.845 134.548C121.831 132.936 125.513 131.048 128.824 128.929ZM147.194 100.088C146.997 106.929 141.843 113.367 133.027 118.504C134.44 112.646 135.2 106.434 135.2 100C135.2 93.2919 134.374 86.8249 132.843 80.749C140.761 85.3197 145.765 90.9335 146.935 96.9494C147.085 97.9856 147.172 99.0323 147.194 100.088ZM134.4 100C134.4 93.077 133.515 86.4252 131.882 80.207C130.93 79.6827 129.938 79.173 128.909 78.6789C126.529 77.5366 123.958 76.4838 121.22 75.5328C123.218 83.0705 124.32 91.3341 124.32 100C124.32 108.397 123.285 116.416 121.404 123.763C124.073 122.829 126.582 121.798 128.909 120.681C130.007 120.154 131.063 119.609 132.074 119.047C133.584 113.044 134.4 106.647 134.4 100ZM145.274 90.7811C142.667 86.6407 138.289 82.8694 132.563 79.6704C132.004 77.5847 131.362 75.5469 130.641 73.5632C137.603 78.4027 142.688 84.294 145.274 90.7811ZM131.593 79.141C130.988 76.9683 130.29 74.8506 129.507 72.795C129.281 72.6458 129.053 72.4977 128.824 72.3507C125.682 70.3399 122.207 68.5379 118.455 66.9818C119.397 69.4198 120.237 71.964 120.967 74.6C124.852 75.9216 128.416 77.446 131.593 79.141ZM146.153 90.8298C143.428 83.7347 137.814 77.3665 130.156 72.2651C128.706 68.5035 126.972 64.9463 124.986 61.6374C135.819 69.0125 143.475 79.2474 146.153 90.8298ZM129.007 71.5191C127.437 67.6274 125.555 63.9695 123.405 60.5954C120.031 58.4447 116.373 56.5632 112.481 54.9932C114.581 58.3101 116.45 61.984 118.049 65.9513C122.016 67.5497 125.69 69.4192 129.007 71.5191ZM93.1702 37.8473C104.753 40.5248 114.987 48.1806 122.363 59.0138C119.054 57.0285 115.496 55.2936 111.735 53.8444C106.634 46.1858 100.265 40.5722 93.1702 37.8473ZM93.2189 38.7264C99.706 41.3116 105.597 46.3966 110.437 53.3585C108.453 52.6378 106.415 51.9957 104.33 51.4371C101.131 45.7108 97.3593 41.3328 93.2189 38.7264ZM104.859 52.4067C107.032 53.0122 109.149 53.7095 111.205 54.4928C111.354 54.7188 111.502 54.9467 111.649 55.1764C113.66 58.3183 115.462 61.7932 117.018 65.5448C114.58 64.6032 112.036 63.7628 109.4 63.0326C108.078 59.1479 106.554 55.5836 104.859 52.4067ZM109.706 63.9493C112.386 64.7101 114.967 65.5859 117.433 66.5667C118.414 69.0331 119.29 71.614 120.051 74.2938C117.482 73.4518 114.779 72.6973 111.961 72.0391C111.303 69.2206 110.548 66.5178 109.706 63.9493ZM112.16 72.9079C115.005 73.5836 117.728 74.3582 120.308 75.2219C122.374 82.8256 123.52 91.1991 123.52 100C123.52 108.53 122.444 116.659 120.496 124.075C117.905 124.949 115.169 125.733 112.309 126.417C113.871 119.247 114.816 111.372 115.005 103.084C115.134 101.967 115.2 100.831 115.2 99.68C115.2 98.4677 115.127 97.2722 114.984 96.0975C114.746 87.8491 113.758 80.0219 112.16 72.9079ZM113.948 91.1622C113.512 84.6355 112.602 78.4314 111.294 72.7061C104.224 71.0908 96.4231 70.0819 88.1866 69.8251C100.478 71.2967 110.531 79.8407 113.948 91.1622ZM114.185 96.16C112.405 81.6623 99.7634 70.4 84.4 70.4C67.9085 70.4 54.5537 83.377 54.4013 99.4029C54.4008 99.529 54.4004 99.6552 54.4002 99.7814C54.4562 115.888 67.8482 128.96 84.4 128.96C99.8246 128.96 112.505 117.608 114.206 103.027C114.229 102.024 114.24 101.015 114.24 100C114.24 98.7105 114.222 97.4301 114.185 96.16ZM113.999 108.025C110.634 119.432 100.541 128.056 88.1865 129.535C96.482 129.276 104.335 128.255 111.446 126.619C112.725 120.843 113.603 114.593 113.999 108.025ZM80.8599 129.563C72.4406 129.367 64.46 128.385 57.2282 126.772C55.8834 120.745 54.9775 114.197 54.5993 107.309C57.7679 119.147 68.1357 128.141 80.8599 129.563ZM53.6002 99.7822C53.6001 99.8548 53.6 99.9274 53.6 100C53.6 109.481 54.5896 118.481 56.3655 126.575C52.734 125.733 49.2978 124.73 46.097 123.587C44.2297 116.303 43.2 108.344 43.2 100C43.2 91.3862 44.2975 83.1818 46.281 75.7079C49.4736 74.5759 52.8984 73.5834 56.5158 72.7498C54.6842 80.8468 53.6435 89.8733 53.6013 99.3969C53.6004 99.4912 53.6 99.5855 53.6 99.68C53.6 99.7141 53.6001 99.7482 53.6002 99.7822ZM54.6466 91.8764C55.0654 85.03 56.0063 78.5298 57.3809 72.5543C64.5723 70.9609 72.4997 69.9916 80.8598 69.7965C68.1982 71.2117 57.8699 80.125 54.6466 91.8764ZM112.116 127.284C114.951 126.618 117.668 125.854 120.247 125.001C119.288 128.496 118.134 131.826 116.807 134.959C114.384 135.898 111.853 136.736 109.229 137.465C110.335 134.279 111.303 130.873 112.116 127.284ZM108.904 138.383C111.481 137.686 113.972 136.884 116.363 135.985C114.963 139.155 113.384 142.113 111.649 144.824C111.502 145.053 111.354 145.281 111.205 145.507C109.149 146.29 107.032 146.988 104.859 147.593C106.346 144.806 107.702 141.721 108.904 138.383ZM104.33 148.563C106.415 148.004 108.453 147.362 110.437 146.641C105.597 153.603 99.706 158.688 93.2189 161.274C97.3593 158.667 101.131 154.289 104.33 148.563ZM105.321 144.909C104.827 145.938 104.317 146.93 103.793 147.882C97.5749 149.515 90.923 150.4 84 150.4C77.3532 150.4 70.9562 149.584 64.9531 148.074C64.3914 147.063 63.8463 146.007 63.3189 144.909C62.4007 142.996 61.5403 140.959 60.7442 138.812C67.9525 140.612 75.796 141.6 84 141.6C92.4728 141.6 100.561 140.546 107.962 138.632C107.148 140.846 106.265 142.942 105.321 144.909ZM84 151.2C77.566 151.2 71.3538 150.44 65.4958 149.027C70.6327 157.843 77.0715 162.997 83.9121 163.194C84.9677 163.172 86.0144 163.085 87.0506 162.935C93.0665 161.765 98.6803 156.761 103.251 148.843C97.1751 150.374 90.7081 151.2 84 151.2ZM59.8038 138.572C61.0192 141.919 62.3888 145.01 63.8907 147.798C60.8388 146.982 57.8925 145.985 55.0712 144.824C53.2279 141.944 51.5595 138.783 50.0956 135.387C53.1667 136.617 56.4125 137.685 59.8038 138.572ZM64.4208 148.76C61.4595 147.999 58.5922 147.071 55.8363 145.989C61.8353 154.883 69.5174 160.843 77.9778 162.635C72.8794 160.405 68.246 155.542 64.4208 148.76ZM49.0438 134.956C50.439 138.293 52.0283 141.415 53.7865 144.281C50.5381 142.867 47.4642 141.233 44.5954 139.405C42.7668 136.536 41.1328 133.462 39.7194 130.214C42.5855 131.972 45.7066 133.561 49.0438 134.956ZM54.5292 145.461C51.4057 144.162 48.4329 142.664 45.6374 140.986C52.2392 150.683 61.1325 157.835 71.2326 161.148C64.8593 158.066 59.1514 152.618 54.5292 145.461ZM38.5394 129.471C39.838 132.594 41.3365 135.567 43.0138 138.363C33.3165 131.761 26.1652 122.867 22.8517 112.767C25.9342 119.141 31.3823 124.849 38.5394 129.471ZM39.1756 128.929C38.0147 126.108 37.0181 123.161 36.2021 120.109C38.9902 121.611 42.081 122.981 45.4284 124.196C46.3154 127.587 47.3833 130.833 48.6133 133.904C45.2167 132.441 42.0559 130.772 39.1756 128.929ZM38.0111 128.164C36.929 125.408 36.0007 122.541 35.2403 119.579C28.4581 115.754 23.595 111.121 21.3655 106.022C23.1567 114.483 29.1172 122.165 38.0111 128.164ZM39.0914 120.681C37.9927 120.154 36.9371 119.609 35.9264 119.047C34.4157 113.044 33.6 106.647 33.6 100C33.6 93.077 34.4849 86.4252 36.1182 80.207C37.0705 79.6827 38.062 79.173 39.0914 78.6789C41.0576 77.7351 43.1542 76.8525 45.3676 76.0379C43.4537 83.439 42.4 91.5272 42.4 100C42.4 108.204 43.3879 116.048 45.1881 123.256C43.0408 122.46 41.0043 121.599 39.0914 120.681ZM32.8 100C32.8 93.2919 33.6256 86.8249 35.1568 80.749C27.2393 85.3197 22.235 90.9335 21.0647 96.9494C20.9154 97.9856 20.8284 99.0323 20.8059 100.088C21.0032 106.929 26.1566 113.367 34.9726 118.504C33.5595 112.646 32.8 106.434 32.8 100ZM45.6168 75.0957C42.2788 76.2984 39.1937 77.654 36.4067 79.141C37.0122 76.9683 37.7095 74.8506 38.4928 72.795C38.7188 72.6458 38.9467 72.4977 39.1764 72.3507C41.8869 70.616 44.8452 69.0367 48.0153 67.6366C47.1164 70.028 46.3142 72.5187 45.6168 75.0957ZM35.4371 79.6704C35.9957 77.5847 36.6378 75.5469 37.3585 73.5632C30.3966 78.4027 25.3116 84.294 22.7264 90.7811C25.3328 86.6407 29.7108 82.8694 35.4371 79.6704ZM48.4177 66.5889C45.034 68.0401 41.8785 69.6924 38.9932 71.5191C40.5632 67.6274 42.4447 63.9695 44.5954 60.5954C47.4642 58.7668 50.5381 57.1328 53.7865 55.7194C51.7595 59.0235 49.9572 62.6666 48.4177 66.5889ZM37.8444 72.2651C39.2936 68.5035 41.0285 64.9463 43.0138 61.6374C32.1806 69.0125 24.5248 79.2474 21.8473 90.8298C24.5722 83.7347 30.1858 77.3664 37.8444 72.2651ZM54.5292 54.5394C51.4057 55.838 48.4329 57.3365 45.6374 59.0138C52.2392 49.3165 61.1325 42.1652 71.2326 38.8517C64.8593 41.9342 59.1514 47.3823 54.5292 54.5394ZM55.0712 55.1756C57.8925 54.0147 60.8388 53.0181 63.8907 52.2021C62.1798 55.3781 60.6406 58.9468 59.3056 62.8403C55.8575 63.7641 52.5626 64.8755 49.452 66.1545C51.064 62.1692 52.9519 58.487 55.0712 55.1756ZM55.8363 54.0111C58.5922 52.929 61.4595 52.0007 64.4208 51.2403C68.246 44.4581 72.8793 39.595 77.9778 37.3655C69.5173 39.1567 61.8353 45.1172 55.8363 54.0111ZM63.3189 55.0914C63.8463 53.9927 64.3914 52.9371 64.9531 51.9264C70.9562 50.4158 77.3532 49.6 84 49.6C90.923 49.6 97.5749 50.4849 103.793 52.1183C104.317 53.0705 104.827 54.062 105.321 55.0914C106.463 57.4712 107.516 60.0422 108.467 62.7798C100.929 60.7823 92.6659 59.68 84 59.68C75.6031 59.68 67.5839 60.7149 60.2368 62.5964C61.171 59.9273 62.2021 57.418 63.3189 55.0914ZM84 48.8C90.7081 48.8 97.1751 49.6256 103.251 51.1568C98.6803 43.2393 93.0665 38.235 87.0506 37.0647C86.0144 36.9154 84.9677 36.8284 83.912 36.8059C77.0714 37.0032 70.6326 42.1566 65.4958 50.9726C71.3538 49.5595 77.566 48.8 84 48.8ZM84 60.48C92.8009 60.48 101.174 61.6257 108.778 63.6915C109.642 66.2723 110.416 68.9951 111.092 71.8402C102.865 69.9923 93.6835 68.96 84 68.96C74.5807 68.96 65.6366 69.9367 57.5835 71.6907C58.2672 68.8307 59.051 66.095 59.925 63.5037C67.3406 61.5564 75.4695 60.48 84 60.48ZM84 130.4C93.7456 130.4 102.982 129.354 111.25 127.484C110.417 131.102 109.424 134.526 108.292 137.719C100.818 139.702 92.6138 140.8 84 140.8C75.6564 140.8 67.6969 139.77 60.4134 137.903C59.2699 134.702 58.267 131.266 57.4245 127.635C65.5189 129.41 74.5187 130.4 84 130.4ZM56.5591 127.441C57.3813 131.045 58.3604 134.463 59.4781 137.658C56.0374 136.734 52.7528 135.623 49.6558 134.344C48.3771 131.247 47.2657 127.963 46.3423 124.522C49.5369 125.64 52.9553 126.619 56.5591 127.441ZM56.7156 71.8835C53.1268 72.6966 49.7208 73.665 46.5354 74.7708C47.2638 72.1469 48.102 69.6162 49.0409 67.193C52.1739 65.8662 55.5042 64.7121 58.9985 63.7525C58.146 66.3324 57.382 69.0491 56.7156 71.8835Z" fill="url(#paint0_linear_523_4384)"/>
<path fill-rule="evenodd" clip-rule="evenodd" d="M253.8 163.992C269.651 163.689 283.754 154.382 292.982 139.982C306.651 131.222 315.731 118.07 316.877 103.2C316.959 102.353 317 101.5 317 100.64L317 100.52C316.999 100.465 316.999 100.41 316.998 100.356L317 100.178L317 100L317 99.8L317 99.68C317 99.5197 316.997 99.3597 316.992 99.2C316.689 83.3494 307.382 69.246 292.982 60.0181C283.754 45.6181 269.651 36.3111 253.8 36.0077C253.64 36.0026 253.48 36 253.32 36L253.2 36.0005L253 36C252.881 36 252.763 36.0005 252.644 36.0015C252.55 36.0005 252.455 36 252.36 36C251.5 36 250.647 36.0414 249.8 36.123C234.93 37.2692 221.778 46.3491 213.018 60.0181C198.618 69.246 189.311 83.3494 189.008 99.2C189.003 99.3597 189 99.5197 189 99.68L189 99.8L189 100C189 100.119 189.001 100.237 189.002 100.356C189.001 100.45 189 100.545 189 100.64C189 101.5 189.041 102.353 189.123 103.2C190.269 118.07 199.349 131.222 213.018 139.982C221.778 153.651 234.93 162.731 249.8 163.877C250.647 163.959 251.5 164 252.36 164L252.48 164C252.535 163.999 252.59 163.999 252.644 163.998L252.822 164L253 164L253.2 164L253.32 164C253.48 164 253.64 163.997 253.8 163.992ZM262.17 162.153C273.753 159.475 283.987 151.819 291.363 140.986C288.054 142.972 284.496 144.706 280.735 146.156C275.634 153.814 269.265 159.428 262.17 162.153ZM314.148 112.767C310.835 122.867 303.683 131.761 293.986 138.363C295.664 135.567 297.162 132.594 298.461 129.471C305.618 124.849 311.066 119.141 314.148 112.767ZM292.405 139.405C294.233 136.536 295.867 133.462 297.281 130.214C293.977 132.24 290.333 134.043 286.411 135.582C284.96 138.966 283.308 142.121 281.481 145.007C285.373 143.437 289.031 141.555 292.405 139.405ZM315.635 106.022C313.843 114.483 307.883 122.165 298.989 128.164C300.071 125.408 300.999 122.54 301.76 119.579C308.542 115.754 313.405 111.121 315.635 106.022ZM297.824 128.929C298.985 126.107 299.982 123.161 300.798 120.109C297.622 121.82 294.053 123.359 290.16 124.694C289.236 128.142 288.125 131.437 286.845 134.548C290.831 132.936 294.513 131.048 297.824 128.929ZM316.194 100.088C315.997 106.929 310.843 113.367 302.027 118.504C303.44 112.646 304.2 106.434 304.2 100C304.2 93.2919 303.374 86.8249 301.843 80.749C309.761 85.3197 314.765 90.9335 315.935 96.9494C316.085 97.9856 316.172 99.0323 316.194 100.088ZM303.4 100C303.4 93.077 302.515 86.4252 300.882 80.207C299.93 79.6827 298.938 79.173 297.909 78.6789C295.529 77.5366 292.958 76.4838 290.22 75.5328C292.218 83.0705 293.32 91.3341 293.32 100C293.32 108.397 292.285 116.416 290.404 123.763C293.073 122.829 295.582 121.798 297.909 120.681C299.007 120.154 300.063 119.609 301.074 119.047C302.584 113.044 303.4 106.647 303.4 100ZM314.274 90.7811C311.667 86.6407 307.289 82.8694 301.563 79.6704C301.004 77.5847 300.362 75.5469 299.641 73.5632C306.603 78.4027 311.688 84.294 314.274 90.7811ZM300.593 79.141C299.988 76.9683 299.29 74.8506 298.507 72.795C298.281 72.6458 298.053 72.4977 297.824 72.3507C294.682 70.3399 291.207 68.5379 287.455 66.9818C288.397 69.4198 289.237 71.964 289.967 74.6C293.852 75.9216 297.416 77.446 300.593 79.141ZM315.153 90.8298C312.428 83.7347 306.814 77.3665 299.156 72.2651C297.706 68.5035 295.972 64.9463 293.986 61.6374C304.819 69.0125 312.475 79.2474 315.153 90.8298ZM298.007 71.5191C296.437 67.6274 294.555 63.9695 292.405 60.5954C289.031 58.4447 285.373 56.5632 281.481 54.9932C283.581 58.3101 285.45 61.984 287.049 65.9513C291.016 67.5497 294.69 69.4192 298.007 71.5191ZM262.17 37.8473C273.753 40.5248 283.987 48.1806 291.363 59.0138C288.054 57.0285 284.496 55.2936 280.735 53.8444C275.634 46.1858 269.265 40.5722 262.17 37.8473ZM262.219 38.7264C268.706 41.3116 274.597 46.3966 279.437 53.3585C277.453 52.6378 275.415 51.9957 273.33 51.4371C270.131 45.7108 266.359 41.3328 262.219 38.7264ZM273.859 52.4067C276.032 53.0122 278.149 53.7095 280.205 54.4928C280.354 54.7188 280.502 54.9467 280.649 55.1764C282.66 58.3183 284.462 61.7932 286.018 65.5448C283.58 64.6032 281.036 63.7628 278.4 63.0326C277.078 59.1479 275.554 55.5836 273.859 52.4067ZM278.706 63.9493C281.386 64.7101 283.967 65.5859 286.433 66.5667C287.414 69.0331 288.29 71.614 289.051 74.2938C286.482 73.4518 283.779 72.6973 280.961 72.0391C280.303 69.2206 279.548 66.5178 278.706 63.9493ZM281.16 72.9079C284.005 73.5836 286.728 74.3582 289.308 75.2219C291.374 82.8256 292.52 91.1991 292.52 100C292.52 108.53 291.444 116.659 289.496 124.075C286.905 124.949 284.169 125.733 281.309 126.417C282.871 119.247 283.816 111.372 284.005 103.084C284.134 101.967 284.2 100.831 284.2 99.68C284.2 98.4677 284.127 97.2722 283.984 96.0975C283.746 87.8491 282.758 80.0219 281.16 72.9079ZM282.948 91.1622C282.512 84.6355 281.602 78.4314 280.294 72.7061C273.224 71.0908 265.423 70.0819 257.187 69.8251C269.478 71.2967 279.531 79.8407 282.948 91.1622ZM283.185 96.16C281.405 81.6623 268.763 70.4 253.4 70.4C236.908 70.4 223.554 83.377 223.401 99.4029C223.401 99.529 223.4 99.6552 223.4 99.7814C223.456 115.888 236.848 128.96 253.4 128.96C268.825 128.96 281.505 117.608 283.206 103.027C283.229 102.024 283.24 101.015 283.24 100C283.24 98.7105 283.222 97.4301 283.185 96.16ZM282.999 108.025C279.634 119.432 269.541 128.056 257.186 129.535C265.482 129.276 273.335 128.255 280.446 126.619C281.725 120.843 282.603 114.593 282.999 108.025ZM249.86 129.563C241.441 129.367 233.46 128.385 226.228 126.772C224.883 120.745 223.978 114.197 223.599 107.309C226.768 119.147 237.136 128.141 249.86 129.563ZM222.6 99.7822C222.6 99.8548 222.6 99.9274 222.6 100C222.6 109.481 223.59 118.481 225.365 126.575C221.734 125.733 218.298 124.73 215.097 123.587C213.23 116.303 212.2 108.344 212.2 100C212.2 91.3862 213.298 83.1818 215.281 75.7079C218.474 74.5759 221.898 73.5834 225.516 72.7498C223.684 80.8468 222.644 89.8733 222.601 99.3969C222.6 99.4912 222.6 99.5855 222.6 99.68C222.6 99.7141 222.6 99.7482 222.6 99.7822ZM223.647 91.8764C224.065 85.03 225.006 78.5298 226.381 72.5543C233.572 70.9609 241.5 69.9916 249.86 69.7965C237.198 71.2117 226.87 80.125 223.647 91.8764ZM281.116 127.284C283.951 126.618 286.668 125.854 289.247 125.001C288.288 128.496 287.134 131.826 285.807 134.959C283.384 135.898 280.853 136.736 278.229 137.465C279.335 134.279 280.303 130.873 281.116 127.284ZM277.904 138.383C280.481 137.686 282.972 136.884 285.363 135.985C283.963 139.155 282.384 142.113 280.649 144.824C280.502 145.053 280.354 145.281 280.205 145.507C278.149 146.29 276.032 146.988 273.859 147.593C275.346 144.806 276.702 141.721 277.904 138.383ZM273.33 148.563C275.415 148.004 277.453 147.362 279.437 146.641C274.597 153.603 268.706 158.688 262.219 161.274C266.359 158.667 270.131 154.289 273.33 148.563ZM274.321 144.909C273.827 145.938 273.317 146.93 272.793 147.882C266.575 149.515 259.923 150.4 253 150.4C246.353 150.4 239.956 149.584 233.953 148.074C233.391 147.063 232.846 146.007 232.319 144.909C231.401 142.996 230.54 140.959 229.744 138.812C236.953 140.612 244.796 141.6 253 141.6C261.473 141.6 269.561 140.546 276.962 138.632C276.148 140.846 275.265 142.942 274.321 144.909ZM253 151.2C246.566 151.2 240.354 150.44 234.496 149.027C239.633 157.843 246.071 162.997 252.912 163.194C253.968 163.172 255.014 163.085 256.051 162.935C262.067 161.765 267.68 156.761 272.251 148.843C266.175 150.374 259.708 151.2 253 151.2ZM228.804 138.572C230.019 141.919 231.389 145.01 232.891 147.798C229.839 146.982 226.892 145.985 224.071 144.824C222.228 141.944 220.559 138.783 219.096 135.387C222.167 136.617 225.413 137.685 228.804 138.572ZM233.421 148.76C230.46 147.999 227.592 147.071 224.836 145.989C230.835 154.883 238.517 160.843 246.978 162.635C241.879 160.405 237.246 155.542 233.421 148.76ZM218.044 134.956C219.439 138.293 221.028 141.415 222.786 144.281C219.538 142.867 216.464 141.233 213.595 139.405C211.767 136.536 210.133 133.462 208.719 130.214C211.585 131.972 214.707 133.561 218.044 134.956ZM223.529 145.461C220.406 144.162 217.433 142.664 214.637 140.986C221.239 150.683 230.133 157.835 240.233 161.148C233.859 158.066 228.151 152.618 223.529 145.461ZM207.539 129.471C208.838 132.594 210.336 135.567 212.014 138.363C202.317 131.761 195.165 122.867 191.852 112.767C194.934 119.141 200.382 124.849 207.539 129.471ZM208.176 128.929C207.015 126.108 206.018 123.161 205.202 120.109C207.99 121.611 211.081 122.981 214.428 124.196C215.315 127.587 216.383 130.833 217.613 133.904C214.217 132.441 211.056 130.772 208.176 128.929ZM207.011 128.164C205.929 125.408 205.001 122.541 204.24 119.579C197.458 115.754 192.595 111.121 190.365 106.022C192.157 114.483 198.117 122.165 207.011 128.164ZM208.091 120.681C206.993 120.154 205.937 119.609 204.926 119.047C203.416 113.044 202.6 106.647 202.6 100C202.6 93.077 203.485 86.4252 205.118 80.207C206.07 79.6827 207.062 79.173 208.091 78.6789C210.058 77.7351 212.154 76.8525 214.368 76.0379C212.454 83.439 211.4 91.5272 211.4 100C211.4 108.204 212.388 116.048 214.188 123.256C212.041 122.46 210.004 121.599 208.091 120.681ZM201.8 100C201.8 93.2919 202.626 86.8249 204.157 80.749C196.239 85.3197 191.235 90.9335 190.065 96.9494C189.915 97.9856 189.828 99.0323 189.806 100.088C190.003 106.929 195.157 113.367 203.973 118.504C202.56 112.646 201.8 106.434 201.8 100ZM214.617 75.0957C211.279 76.2984 208.194 77.654 205.407 79.141C206.012 76.9683 206.71 74.8506 207.493 72.795C207.719 72.6458 207.947 72.4977 208.176 72.3507C210.887 70.616 213.845 69.0367 217.015 67.6366C216.116 70.028 215.314 72.5187 214.617 75.0957ZM204.437 79.6704C204.996 77.5847 205.638 75.5469 206.359 73.5632C199.397 78.4027 194.312 84.294 191.726 90.7811C194.333 86.6407 198.711 82.8694 204.437 79.6704ZM217.418 66.5889C214.034 68.0401 210.879 69.6924 207.993 71.5191C209.563 67.6274 211.445 63.9695 213.595 60.5954C216.464 58.7668 219.538 57.1328 222.786 55.7194C220.76 59.0235 218.957 62.6666 217.418 66.5889ZM206.844 72.2651C208.294 68.5035 210.028 64.9463 212.014 61.6374C201.181 69.0125 193.525 79.2474 190.847 90.8298C193.572 83.7347 199.186 77.3664 206.844 72.2651ZM223.529 54.5394C220.406 55.838 217.433 57.3365 214.637 59.0138C221.239 49.3165 230.133 42.1652 240.233 38.8517C233.859 41.9342 228.151 47.3823 223.529 54.5394ZM224.071 55.1756C226.892 54.0147 229.839 53.0181 232.891 52.2021C231.18 55.3781 229.641 58.9468 228.306 62.8403C224.858 63.7641 221.563 64.8755 218.452 66.1545C220.064 62.1692 221.952 58.487 224.071 55.1756ZM224.836 54.0111C227.592 52.929 230.459 52.0007 233.421 51.2403C237.246 44.4581 241.879 39.595 246.978 37.3655C238.517 39.1567 230.835 45.1172 224.836 54.0111ZM232.319 55.0914C232.846 53.9927 233.391 52.9371 233.953 51.9264C239.956 50.4158 246.353 49.6 253 49.6C259.923 49.6 266.575 50.4849 272.793 52.1183C273.317 53.0705 273.827 54.062 274.321 55.0914C275.463 57.4712 276.516 60.0422 277.467 62.7798C269.929 60.7823 261.666 59.68 253 59.68C244.603 59.68 236.584 60.7149 229.237 62.5964C230.171 59.9273 231.202 57.418 232.319 55.0914ZM253 48.8C259.708 48.8 266.175 49.6256 272.251 51.1568C267.68 43.2393 262.067 38.235 256.051 37.0647C255.014 36.9154 253.968 36.8284 252.912 36.8059C246.071 37.0032 239.633 42.1566 234.496 50.9726C240.354 49.5595 246.566 48.8 253 48.8ZM253 60.48C261.801 60.48 270.174 61.6257 277.778 63.6915C278.642 66.2723 279.416 68.9951 280.092 71.8402C271.865 69.9923 262.684 68.96 253 68.96C243.581 68.96 234.637 69.9367 226.583 71.6907C227.267 68.8307 228.051 66.095 228.925 63.5037C236.341 61.5564 244.47 60.48 253 60.48ZM253 130.4C262.746 130.4 271.982 129.354 280.25 127.484C279.417 131.102 278.424 134.526 277.292 137.719C269.818 139.702 261.614 140.8 253 140.8C244.656 140.8 236.697 139.77 229.413 137.903C228.27 134.702 227.267 131.266 226.425 127.635C234.519 129.41 243.519 130.4 253 130.4ZM225.559 127.441C226.381 131.045 227.36 134.463 228.478 137.658C225.037 136.734 221.753 135.623 218.656 134.344C217.377 131.247 216.266 127.963 215.342 124.522C218.537 125.64 221.955 126.619 225.559 127.441ZM225.716 71.8835C222.127 72.6966 218.721 73.665 215.535 74.7708C216.264 72.1469 217.102 69.6162 218.041 67.193C221.174 65.8662 224.504 64.7121 227.999 63.7525C227.146 66.3324 226.382 69.0491 225.716 71.8835Z" fill="url(#paint1_linear_523_4384)"/>
<path fill-rule="evenodd" clip-rule="evenodd" d="M422.8 163.992C438.651 163.689 452.754 154.382 461.982 139.982C475.651 131.222 484.731 118.07 485.877 103.2C485.959 102.353 486 101.5 486 100.64L486 100.52C485.999 100.465 485.999 100.41 485.998 100.356L486 100.178L486 100L486 99.8L486 99.68C486 99.5197 485.997 99.3597 485.992 99.2C485.689 83.3494 476.382 69.246 461.982 60.0181C452.754 45.6181 438.651 36.3111 422.8 36.0077C422.64 36.0026 422.48 36 422.32 36L422.2 36.0005L422 36C421.881 36 421.763 36.0005 421.644 36.0015C421.55 36.0005 421.455 36 421.36 36C420.5 36 419.647 36.0414 418.8 36.123C403.93 37.2692 390.778 46.3491 382.018 60.0181C367.618 69.246 358.311 83.3494 358.008 99.2C358.003 99.3597 358 99.5197 358 99.68L358 99.8L358 100C358 100.119 358.001 100.237 358.002 100.356C358.001 100.45 358 100.545 358 100.64C358 101.5 358.041 102.353 358.123 103.2C359.269 118.07 368.349 131.222 382.018 139.982C390.778 153.651 403.93 162.731 418.8 163.877C419.647 163.959 420.5 164 421.36 164L421.48 164C421.535 163.999 421.59 163.999 421.644 163.998L421.822 164L422 164L422.2 164L422.32 164C422.48 164 422.64 163.997 422.8 163.992ZM431.17 162.153C442.753 159.475 452.987 151.819 460.363 140.986C457.054 142.972 453.496 144.706 449.735 146.156C444.634 153.814 438.265 159.428 431.17 162.153ZM483.148 112.767C479.835 122.867 472.683 131.761 462.986 138.363C464.664 135.567 466.162 132.594 467.461 129.471C474.618 124.849 480.066 119.141 483.148 112.767ZM461.405 139.405C463.233 136.536 464.867 133.462 466.281 130.214C462.977 132.24 459.333 134.043 455.411 135.582C453.96 138.966 452.308 142.121 450.481 145.007C454.373 143.437 458.031 141.555 461.405 139.405ZM484.635 106.022C482.843 114.483 476.883 122.165 467.989 128.164C469.071 125.408 469.999 122.54 470.76 119.579C477.542 115.754 482.405 111.121 484.635 106.022ZM466.824 128.929C467.985 126.107 468.982 123.161 469.798 120.109C466.622 121.82 463.053 123.359 459.16 124.694C458.236 128.142 457.125 131.437 455.845 134.548C459.831 132.936 463.513 131.048 466.824 128.929ZM485.194 100.088C484.997 106.929 479.843 113.367 471.027 118.504C472.44 112.646 473.2 106.434 473.2 100C473.2 93.2919 472.374 86.8249 470.843 80.749C478.761 85.3197 483.765 90.9335 484.935 96.9494C485.085 97.9856 485.172 99.0323 485.194 100.088ZM472.4 100C472.4 93.077 471.515 86.4252 469.882 80.207C468.93 79.6827 467.938 79.173 466.909 78.6789C464.529 77.5366 461.958 76.4838 459.22 75.5328C461.218 83.0705 462.32 91.3341 462.32 100C462.32 108.397 461.285 116.416 459.404 123.763C462.073 122.829 464.582 121.798 466.909 120.681C468.007 120.154 469.063 119.609 470.074 119.047C471.584 113.044 472.4 106.647 472.4 100ZM483.274 90.7811C480.667 86.6407 476.289 82.8694 470.563 79.6704C470.004 77.5847 469.362 75.5469 468.641 73.5632C475.603 78.4027 480.688 84.294 483.274 90.7811ZM469.593 79.141C468.988 76.9683 468.29 74.8506 467.507 72.795C467.281 72.6458 467.053 72.4977 466.824 72.3507C463.682 70.3399 460.207 68.5379 456.455 66.9818C457.397 69.4198 458.237 71.964 458.967 74.6C462.852 75.9216 466.416 77.446 469.593 79.141ZM484.153 90.8298C481.428 83.7347 475.814 77.3665 468.156 72.2651C466.706 68.5035 464.972 64.9463 462.986 61.6374C473.819 69.0125 481.475 79.2474 484.153 90.8298ZM467.007 71.5191C465.437 67.6274 463.555 63.9695 461.405 60.5954C458.031 58.4447 454.373 56.5632 450.481 54.9932C452.581 58.3101 454.45 61.984 456.049 65.9513C460.016 67.5497 463.69 69.4192 467.007 71.5191ZM431.17 37.8473C442.753 40.5248 452.987 48.1806 460.363 59.0138C457.054 57.0285 453.496 55.2936 449.735 53.8444C444.634 46.1858 438.265 40.5722 431.17 37.8473ZM431.219 38.7264C437.706 41.3116 443.597 46.3966 448.437 53.3585C446.453 52.6378 444.415 51.9957 442.33 51.4371C439.131 45.7108 435.359 41.3328 431.219 38.7264ZM442.859 52.4067C445.032 53.0122 447.149 53.7095 449.205 54.4928C449.354 54.7188 449.502 54.9467 449.649 55.1764C451.66 58.3183 453.462 61.7932 455.018 65.5448C452.58 64.6032 450.036 63.7628 447.4 63.0326C446.078 59.1479 444.554 55.5836 442.859 52.4067ZM447.706 63.9493C450.386 64.7101 452.967 65.5859 455.433 66.5667C456.414 69.0331 457.29 71.614 458.051 74.2938C455.482 73.4518 452.779 72.6973 449.961 72.0391C449.303 69.2206 448.548 66.5178 447.706 63.9493ZM450.16 72.9079C453.005 73.5836 455.728 74.3582 458.308 75.2219C460.374 82.8256 461.52 91.1991 461.52 100C461.52 108.53 460.444 116.659 458.496 124.075C455.905 124.949 453.169 125.733 450.309 126.417C451.871 119.247 452.816 111.372 453.005 103.084C453.134 101.967 453.2 100.831 453.2 99.68C453.2 98.4677 453.127 97.2722 452.984 96.0975C452.746 87.8491 451.758 80.0219 450.16 72.9079ZM451.948 91.1622C451.512 84.6355 450.602 78.4314 449.294 72.7061C442.224 71.0908 434.423 70.0819 426.187 69.8251C438.478 71.2967 448.531 79.8407 451.948 91.1622ZM452.185 96.16C450.405 81.6623 437.763 70.4 422.4 70.4C405.908 70.4 392.554 83.377 392.401 99.4029C392.401 99.529 392.4 99.6552 392.4 99.7814C392.456 115.888 405.848 128.96 422.4 128.96C437.825 128.96 450.505 117.608 452.206 103.027C452.229 102.024 452.24 101.015 452.24 100C452.24 98.7105 452.222 97.4301 452.185 96.16ZM451.999 108.025C448.634 119.432 438.541 128.056 426.186 129.535C434.482 129.276 442.335 128.255 449.446 126.619C450.725 120.843 451.603 114.593 451.999 108.025ZM418.86 129.563C410.441 129.367 402.46 128.385 395.228 126.772C393.883 120.745 392.978 114.197 392.599 107.309C395.768 119.147 406.136 128.141 418.86 129.563ZM391.6 99.7822C391.6 99.8548 391.6 99.9274 391.6 100C391.6 109.481 392.59 118.481 394.365 126.575C390.734 125.733 387.298 124.73 384.097 123.587C382.23 116.303 381.2 108.344 381.2 100C381.2 91.3862 382.298 83.1818 384.281 75.7079C387.474 74.5759 390.898 73.5834 394.516 72.7498C392.684 80.8468 391.644 89.8733 391.601 99.3969C391.6 99.4912 391.6 99.5855 391.6 99.68C391.6 99.7141 391.6 99.7482 391.6 99.7822ZM392.647 91.8764C393.065 85.03 394.006 78.5298 395.381 72.5543C402.572 70.9609 410.5 69.9916 418.86 69.7965C406.198 71.2117 395.87 80.125 392.647 91.8764ZM450.116 127.284C452.951 126.618 455.668 125.854 458.247 125.001C457.288 128.496 456.134 131.826 454.807 134.959C452.384 135.898 449.853 136.736 447.229 137.465C448.335 134.279 449.303 130.873 450.116 127.284ZM446.904 138.383C449.481 137.686 451.972 136.884 454.363 135.985C452.963 139.155 451.384 142.113 449.649 144.824C449.502 145.053 449.354 145.281 449.205 145.507C447.149 146.29 445.032 146.988 442.859 147.593C444.346 144.806 445.702 141.721 446.904 138.383ZM442.33 148.563C444.415 148.004 446.453 147.362 448.437 146.641C443.597 153.603 437.706 158.688 431.219 161.274C435.359 158.667 439.131 154.289 442.33 148.563ZM443.321 144.909C442.827 145.938 442.317 146.93 441.793 147.882C435.575 149.515 428.923 150.4 422 150.4C415.353 150.4 408.956 149.584 402.953 148.074C402.391 147.063 401.846 146.007 401.319 144.909C400.401 142.996 399.54 140.959 398.744 138.812C405.953 140.612 413.796 141.6 422 141.6C430.473 141.6 438.561 140.546 445.962 138.632C445.148 140.846 444.265 142.942 443.321 144.909ZM422 151.2C415.566 151.2 409.354 150.44 403.496 149.027C408.633 157.843 415.071 162.997 421.912 163.194C422.968 163.172 424.014 163.085 425.051 162.935C431.067 161.765 436.68 156.761 441.251 148.843C435.175 150.374 428.708 151.2 422 151.2ZM397.804 138.572C399.019 141.919 400.389 145.01 401.891 147.798C398.839 146.982 395.892 145.985 393.071 144.824C391.228 141.944 389.559 138.783 388.096 135.387C391.167 136.617 394.413 137.685 397.804 138.572ZM402.421 148.76C399.46 147.999 396.592 147.071 393.836 145.989C399.835 154.883 407.517 160.843 415.978 162.635C410.879 160.405 406.246 155.542 402.421 148.76ZM387.044 134.956C388.439 138.293 390.028 141.415 391.786 144.281C388.538 142.867 385.464 141.233 382.595 139.405C380.767 136.536 379.133 133.462 377.719 130.214C380.585 131.972 383.707 133.561 387.044 134.956ZM392.529 145.461C389.406 144.162 386.433 142.664 383.637 140.986C390.239 150.683 399.133 157.835 409.233 161.148C402.859 158.066 397.151 152.618 392.529 145.461ZM376.539 129.471C377.838 132.594 379.336 135.567 381.014 138.363C371.317 131.761 364.165 122.867 360.852 112.767C363.934 119.141 369.382 124.849 376.539 129.471ZM377.176 128.929C376.015 126.108 375.018 123.161 374.202 120.109C376.99 121.611 380.081 122.981 383.428 124.196C384.315 127.587 385.383 130.833 386.613 133.904C383.217 132.441 380.056 130.772 377.176 128.929ZM376.011 128.164C374.929 125.408 374.001 122.541 373.24 119.579C366.458 115.754 361.595 111.121 359.365 106.022C361.157 114.483 367.117 122.165 376.011 128.164ZM377.091 120.681C375.993 120.154 374.937 119.609 373.926 119.047C372.416 113.044 371.6 106.647 371.6 100C371.6 93.077 372.485 86.4252 374.118 80.207C375.07 79.6827 376.062 79.173 377.091 78.6789C379.058 77.7351 381.154 76.8525 383.368 76.0379C381.454 83.439 380.4 91.5272 380.4 100C380.4 108.204 381.388 116.048 383.188 123.256C381.041 122.46 379.004 121.599 377.091 120.681ZM370.8 100C370.8 93.2919 371.626 86.8249 373.157 80.749C365.239 85.3197 360.235 90.9335 359.065 96.9494C358.915 97.9856 358.828 99.0323 358.806 100.088C359.003 106.929 364.157 113.367 372.973 118.504C371.56 112.646 370.8 106.434 370.8 100ZM383.617 75.0957C380.279 76.2984 377.194 77.654 374.407 79.141C375.012 76.9683 375.71 74.8506 376.493 72.795C376.719 72.6458 376.947 72.4977 377.176 72.3507C379.887 70.616 382.845 69.0367 386.015 67.6366C385.116 70.028 384.314 72.5187 383.617 75.0957ZM373.437 79.6704C373.996 77.5847 374.638 75.5469 375.359 73.5632C368.397 78.4027 363.312 84.294 360.726 90.7811C363.333 86.6407 367.711 82.8694 373.437 79.6704ZM386.418 66.5889C383.034 68.0401 379.879 69.6924 376.993 71.5191C378.563 67.6274 380.445 63.9695 382.595 60.5954C385.464 58.7668 388.538 57.1328 391.786 55.7194C389.76 59.0235 387.957 62.6666 386.418 66.5889ZM375.844 72.2651C377.294 68.5035 379.028 64.9463 381.014 61.6374C370.181 69.0125 362.525 79.2474 359.847 90.8298C362.572 83.7347 368.186 77.3664 375.844 72.2651ZM392.529 54.5394C389.406 55.838 386.433 57.3365 383.637 59.0138C390.239 49.3165 399.133 42.1652 409.233 38.8517C402.859 41.9342 397.151 47.3823 392.529 54.5394ZM393.071 55.1756C395.892 54.0147 398.839 53.0181 401.891 52.2021C400.18 55.3781 398.641 58.9468 397.306 62.8403C393.858 63.7641 390.563 64.8755 387.452 66.1545C389.064 62.1692 390.952 58.487 393.071 55.1756ZM393.836 54.0111C396.592 52.929 399.459 52.0007 402.421 51.2403C406.246 44.4581 410.879 39.595 415.978 37.3655C407.517 39.1567 399.835 45.1172 393.836 54.0111ZM401.319 55.0914C401.846 53.9927 402.391 52.9371 402.953 51.9264C408.956 50.4158 415.353 49.6 422 49.6C428.923 49.6 435.575 50.4849 441.793 52.1183C442.317 53.0705 442.827 54.062 443.321 55.0914C444.463 57.4712 445.516 60.0422 446.467 62.7798C438.929 60.7823 430.666 59.68 422 59.68C413.603 59.68 405.584 60.7149 398.237 62.5964C399.171 59.9273 400.202 57.418 401.319 55.0914ZM422 48.8C428.708 48.8 435.175 49.6256 441.251 51.1568C436.68 43.2393 431.067 38.235 425.051 37.0647C424.014 36.9154 422.968 36.8284 421.912 36.8059C415.071 37.0032 408.633 42.1566 403.496 50.9726C409.354 49.5595 415.566 48.8 422 48.8ZM422 60.48C430.801 60.48 439.174 61.6257 446.778 63.6915C447.642 66.2723 448.416 68.9951 449.092 71.8402C440.865 69.9923 431.684 68.96 422 68.96C412.581 68.96 403.637 69.9367 395.583 71.6907C396.267 68.8307 397.051 66.095 397.925 63.5037C405.341 61.5564 413.47 60.48 422 60.48ZM422 130.4C431.746 130.4 440.982 129.354 449.25 127.484C448.417 131.102 447.424 134.526 446.292 137.719C438.818 139.702 430.614 140.8 422 140.8C413.656 140.8 405.697 139.77 398.413 137.903C397.27 134.702 396.267 131.266 395.425 127.635C403.519 129.41 412.519 130.4 422 130.4ZM394.559 127.441C395.381 131.045 396.36 134.463 397.478 137.658C394.037 136.734 390.753 135.623 387.656 134.344C386.377 131.247 385.266 127.963 384.342 124.522C387.537 125.64 390.955 126.619 394.559 127.441ZM394.716 71.8835C391.127 72.6966 387.721 73.665 384.535 74.7708C385.264 72.1469 386.102 69.6162 387.041 67.193C390.174 65.8662 393.504 64.7121 396.999 63.7525C396.146 66.3324 395.382 69.0491 394.716 71.8835Z" fill="url(#paint2_linear_523_4384)"/>
</g>
<defs>
<linearGradient id="paint0_linear_523_4384" x1="34.4" y1="54.4" x2="125.6" y2="162.4" gradientUnits="userSpaceOnUse">
<stop stop-color="white"/>
<stop offset="0.376612" stop-color="white"/>
<stop offset="1" stop-color="white" stop-opacity="0"/>
</linearGradient>
<linearGradient id="paint1_linear_523_4384" x1="203.4" y1="54.4" x2="294.6" y2="162.4" gradientUnits="userSpaceOnUse">
<stop stop-color="white"/>
<stop offset="0.376612" stop-color="white"/>
<stop offset="1" stop-color="white" stop-opacity="0"/>
</linearGradient>
<linearGradient id="paint2_linear_523_4384" x1="372.4" y1="54.4" x2="463.6" y2="162.4" gradientUnits="userSpaceOnUse">
<stop stop-color="white"/>
<stop offset="0.376612" stop-color="white"/>
<stop offset="1" stop-color="white" stop-opacity="0"/>
</linearGradient>
<clipPath id="clip0_523_4384">
<rect width="506" height="200" fill="white"/>
</clipPath>
</defs>
</svg>
