<svg width="506" height="200" viewBox="0 0 506 200" fill="none" xmlns="http://www.w3.org/2000/svg">
<g clip-path="url(#clip0_523_4397)">
<rect width="506" height="200" fill="black"/>
<path fill-rule="evenodd" clip-rule="evenodd" d="M148.332 100C148.332 64.6538 119.678 36 84.332 36C48.9858 36 20.332 64.6538 20.332 100C20.332 135.346 48.9858 164 84.332 164C119.678 164 148.332 135.346 148.332 100ZM76.332 100C76.332 128.087 78.5936 151.947 81.7393 160.564C81.1453 159.948 80.5033 159.099 79.8258 157.953C78.052 154.952 76.3851 150.476 74.9586 144.77C72.1132 133.388 70.332 117.559 70.332 100C70.332 82.4412 72.1132 66.6118 74.9586 55.2302C76.3851 49.5241 78.052 45.0482 79.8258 42.0471C80.5033 40.9009 81.1453 40.0519 81.7393 39.4359C78.5936 48.0525 76.332 71.9134 76.332 100ZM88.8382 157.953C88.1607 159.099 87.5187 159.948 86.9247 160.564C90.0705 151.947 92.332 128.087 92.332 100C92.332 71.9134 90.0705 48.0525 86.9247 39.4359C87.5187 40.0518 88.1607 40.9009 88.8382 42.0471C90.6121 45.0482 92.2789 49.5241 93.7055 55.2302C96.5508 66.6118 98.332 82.4412 98.332 100C98.332 117.559 96.5508 133.388 93.7055 144.77C92.2789 150.476 90.6121 154.952 88.8382 157.953ZM78.4893 159.599C77.8229 159.047 77.1547 158.397 76.4867 157.644C73.8354 154.653 71.3565 150.212 69.2341 144.553C64.9949 133.248 62.332 117.497 62.332 100C62.332 82.5032 64.9949 66.752 69.2341 55.4474C71.3565 49.7878 73.8354 45.3466 76.4867 42.3562C77.1547 41.6028 77.8229 40.9525 78.4893 40.4014C72.5425 49.7365 68.332 72.9015 68.332 100C68.332 127.099 72.5425 150.263 78.4893 159.599ZM90.1747 159.599C90.8411 159.047 91.5094 158.397 92.1774 157.644C94.8286 154.653 97.3076 150.212 99.4299 144.553C103.669 133.248 106.332 117.497 106.332 100C106.332 82.5032 103.669 66.752 99.4299 55.4474C97.3076 49.7878 94.8286 45.3466 92.1774 42.3562C91.5094 41.6028 90.8411 40.9525 90.1747 40.4013C96.1216 49.7365 100.332 72.9014 100.332 100C100.332 127.099 96.1216 150.263 90.1747 159.599ZM63.4935 144.36C66.7419 150.857 70.5776 155.689 74.7001 158.637C66.2408 148.742 60.332 126.211 60.332 100C60.332 73.7889 66.2408 51.258 74.7001 41.3627C70.5776 44.3109 66.7419 49.1428 63.4935 55.6396C57.8687 66.8891 54.332 82.5701 54.332 100C54.332 117.43 57.8687 133.111 63.4935 144.36ZM105.171 144.36C101.922 150.857 98.0864 155.689 93.964 158.637C102.423 148.742 108.332 126.211 108.332 100C108.332 73.7889 102.423 51.258 93.964 41.3627C98.0864 44.3109 101.922 49.1428 105.171 55.6396C110.795 66.8891 114.332 82.5701 114.332 100C114.332 117.43 110.795 133.111 105.171 144.36ZM70.4757 157.705C65.7391 154.655 61.4112 150.063 57.7438 144.195C50.7334 132.978 46.332 117.358 46.332 100C46.332 82.6418 50.7334 67.0217 57.7438 55.8052C61.4112 49.9372 65.7391 45.3449 70.4756 42.2948C59.7411 52.624 52.332 74.5815 52.332 100C52.332 125.418 59.7411 147.376 70.4757 157.705ZM98.1884 157.705C102.925 154.655 107.253 150.063 110.92 144.195C117.931 132.978 122.332 117.358 122.332 100C122.332 82.6418 117.931 67.0217 110.92 55.8052C107.253 49.9372 102.925 45.3449 98.1884 42.2948C108.923 52.624 116.332 74.5815 116.332 100C116.332 125.418 108.923 147.376 98.1884 157.705ZM51.9909 144.055C55.9951 149.394 60.6925 153.72 65.8642 156.785C53.0683 146.11 44.332 124.687 44.332 100C44.332 75.3126 53.0683 53.8899 65.8642 43.2147C60.6925 46.2805 55.9951 50.6063 51.9909 55.9452C43.5883 67.1487 38.332 82.7178 38.332 100C38.332 117.282 43.5883 132.851 51.9909 144.055ZM116.673 144.055C112.669 149.394 107.972 153.72 102.8 156.785C115.596 146.11 124.332 124.687 124.332 100C124.332 75.3126 115.596 53.8899 102.8 43.2147C107.972 46.2805 112.669 50.6063 116.673 55.9452C125.076 67.1487 130.332 82.7178 130.332 100C130.332 117.282 125.076 132.851 116.673 144.055ZM60.8551 155.836C42.8673 145.844 30.332 124.719 30.332 100C30.332 75.2809 42.8673 54.1561 60.8551 44.1644C46.2199 55.1277 36.332 76.0242 36.332 100C36.332 123.976 46.2199 144.872 60.8551 155.836ZM107.809 155.836C125.797 145.844 138.332 124.719 138.332 100C138.332 75.2809 125.797 54.1561 107.809 44.1644C122.444 55.1276 132.332 76.0242 132.332 100C132.332 123.976 122.444 144.872 107.809 155.836ZM22.332 100C22.332 123.897 35.8513 144.635 55.6587 154.986C39.2923 143.814 28.332 123.37 28.332 100C28.332 76.63 39.2923 56.1857 55.6587 45.0144C35.8513 55.3645 22.332 76.1035 22.332 100ZM146.332 100C146.332 123.897 132.813 144.635 113.005 154.986C129.372 143.814 140.332 123.37 140.332 100C140.332 76.63 129.372 56.1857 113.005 45.0144C132.813 55.3645 146.332 76.1035 146.332 100ZM88.0043 145.007C89.4389 133.53 90.332 117.617 90.332 100C90.332 82.3829 89.4389 66.4697 88.0043 54.9932C87.2853 49.241 86.4394 44.6801 85.528 41.5963C85.4623 41.374 85.3969 41.1617 85.332 40.9594V159.041C85.3969 158.838 85.4623 158.626 85.528 158.404C86.4394 155.32 87.2853 150.759 88.0043 145.007ZM83.332 40.9594V159.041C83.2671 158.838 83.2018 158.626 83.1361 158.404C82.2247 155.32 81.3788 150.759 80.6597 145.007C79.2252 133.53 78.332 117.617 78.332 100C78.332 82.3829 79.2252 66.4697 80.6597 54.9932C81.3788 49.241 82.2247 44.6801 83.1361 41.5963C83.2018 41.374 83.2671 41.1617 83.332 40.9594Z" fill="url(#paint0_linear_523_4397)"/>
<path fill-rule="evenodd" clip-rule="evenodd" d="M317 100C317 64.6538 288.346 36 253 36C217.654 36 189 64.6538 189 100C189 135.346 217.654 164 253 164C288.346 164 317 135.346 317 100ZM245 100C245 128.087 247.262 151.947 250.407 160.564C249.813 159.948 249.171 159.099 248.494 157.953C246.72 154.952 245.053 150.476 243.627 144.77C240.781 133.388 239 117.559 239 100C239 82.4412 240.781 66.6118 243.627 55.2302C245.053 49.5241 246.72 45.0482 248.494 42.0471C249.171 40.9009 249.813 40.0519 250.407 39.4359C247.262 48.0525 245 71.9134 245 100ZM257.506 157.953C256.829 159.099 256.187 159.948 255.593 160.564C258.738 151.947 261 128.087 261 100C261 71.9134 258.738 48.0525 255.593 39.4359C256.187 40.0518 256.829 40.9009 257.506 42.0471C259.28 45.0482 260.947 49.5241 262.373 55.2302C265.219 66.6118 267 82.4412 267 100C267 117.559 265.219 133.388 262.373 144.77C260.947 150.476 259.28 154.952 257.506 157.953ZM247.157 159.599C246.491 159.047 245.823 158.397 245.155 157.644C242.503 154.653 240.024 150.212 237.902 144.553C233.663 133.248 231 117.497 231 100C231 82.5032 233.663 66.752 237.902 55.4474C240.024 49.7878 242.503 45.3466 245.155 42.3562C245.823 41.6028 246.491 40.9525 247.157 40.4014C241.21 49.7365 237 72.9015 237 100C237 127.099 241.21 150.263 247.157 159.599ZM258.843 159.599C259.509 159.047 260.177 158.397 260.845 157.644C263.497 154.653 265.976 150.212 268.098 144.553C272.337 133.248 275 117.497 275 100C275 82.5032 272.337 66.752 268.098 55.4474C265.976 49.7878 263.497 45.3466 260.845 42.3562C260.177 41.6028 259.509 40.9525 258.843 40.4013C264.79 49.7365 269 72.9014 269 100C269 127.099 264.79 150.263 258.843 159.599ZM232.161 144.36C235.41 150.857 239.246 155.689 243.368 158.637C234.909 148.742 229 126.211 229 100C229 73.7889 234.909 51.258 243.368 41.3627C239.246 44.3109 235.41 49.1428 232.161 55.6396C226.537 66.8891 223 82.5701 223 100C223 117.43 226.537 133.111 232.161 144.36ZM273.839 144.36C270.59 150.857 266.754 155.689 262.632 158.637C271.091 148.742 277 126.211 277 100C277 73.7889 271.091 51.258 262.632 41.3627C266.754 44.3109 270.59 49.1428 273.839 55.6396C279.463 66.8891 283 82.5701 283 100C283 117.43 279.463 133.111 273.839 144.36ZM239.144 157.705C234.407 154.655 230.079 150.063 226.412 144.195C219.401 132.978 215 117.358 215 100C215 82.6418 219.401 67.0217 226.412 55.8052C230.079 49.9372 234.407 45.3449 239.144 42.2948C228.409 52.624 221 74.5815 221 100C221 125.418 228.409 147.376 239.144 157.705ZM266.856 157.705C271.593 154.655 275.921 150.063 279.588 144.195C286.599 132.978 291 117.358 291 100C291 82.6418 286.599 67.0217 279.588 55.8052C275.921 49.9372 271.593 45.3449 266.856 42.2948C277.591 52.624 285 74.5815 285 100C285 125.418 277.591 147.376 266.856 157.705ZM220.659 144.055C224.663 149.394 229.36 153.72 234.532 156.785C221.736 146.11 213 124.687 213 100C213 75.3126 221.736 53.8899 234.532 43.2147C229.36 46.2805 224.663 50.6063 220.659 55.9452C212.256 67.1487 207 82.7178 207 100C207 117.282 212.256 132.851 220.659 144.055ZM285.341 144.055C281.337 149.394 276.64 153.72 271.468 156.785C284.264 146.11 293 124.687 293 100C293 75.3126 284.264 53.8899 271.468 43.2147C276.64 46.2805 281.337 50.6063 285.341 55.9452C293.744 67.1487 299 82.7178 299 100C299 117.282 293.744 132.851 285.341 144.055ZM229.523 155.836C211.535 145.844 199 124.719 199 100C199 75.2809 211.535 54.1561 229.523 44.1644C214.888 55.1277 205 76.0242 205 100C205 123.976 214.888 144.872 229.523 155.836ZM276.477 155.836C294.465 145.844 307 124.719 307 100C307 75.2809 294.465 54.1561 276.477 44.1644C291.112 55.1276 301 76.0242 301 100C301 123.976 291.112 144.872 276.477 155.836ZM191 100C191 123.897 204.519 144.635 224.327 154.986C207.96 143.814 197 123.37 197 100C197 76.63 207.96 56.1857 224.327 45.0144C204.519 55.3645 191 76.1035 191 100ZM315 100C315 123.897 301.481 144.635 281.673 154.986C298.04 143.814 309 123.37 309 100C309 76.63 298.04 56.1857 281.673 45.0144C301.481 55.3645 315 76.1035 315 100ZM256.672 145.007C258.107 133.53 259 117.617 259 100C259 82.3829 258.107 66.4697 256.672 54.9932C255.953 49.241 255.107 44.6801 254.196 41.5963C254.13 41.374 254.065 41.1617 254 40.9594V159.041C254.065 158.838 254.13 158.626 254.196 158.404C255.107 155.32 255.953 150.759 256.672 145.007ZM252 40.9594V159.041C251.935 158.838 251.87 158.626 251.804 158.404C250.893 155.32 250.047 150.759 249.328 145.007C247.893 133.53 247 117.617 247 100C247 82.3829 247.893 66.4697 249.328 54.9932C250.047 49.241 250.893 44.6801 251.804 41.5963C251.87 41.374 251.935 41.1617 252 40.9594Z" fill="url(#paint1_linear_523_4397)"/>
<path fill-rule="evenodd" clip-rule="evenodd" d="M485.664 100C485.664 64.6538 457.01 36 421.664 36C386.318 36 357.664 64.6538 357.664 100C357.664 135.346 386.318 164 421.664 164C457.01 164 485.664 135.346 485.664 100ZM413.664 100C413.664 128.087 415.926 151.947 419.071 160.564C418.477 159.948 417.835 159.099 417.158 157.953C415.384 154.952 413.717 150.476 412.291 144.77C409.445 133.388 407.664 117.559 407.664 100C407.664 82.4412 409.445 66.6118 412.291 55.2302C413.717 49.5241 415.384 45.0482 417.158 42.0471C417.835 40.9009 418.477 40.0519 419.071 39.4359C415.926 48.0525 413.664 71.9134 413.664 100ZM426.17 157.953C425.493 159.099 424.851 159.948 424.257 160.564C427.403 151.947 429.664 128.087 429.664 100C429.664 71.9134 427.403 48.0525 424.257 39.4359C424.851 40.0518 425.493 40.9009 426.17 42.0471C427.944 45.0482 429.611 49.5241 431.037 55.2302C433.883 66.6118 435.664 82.4412 435.664 100C435.664 117.559 433.883 133.388 431.037 144.77C429.611 150.476 427.944 154.952 426.17 157.953ZM415.821 159.599C415.155 159.047 414.487 158.397 413.819 157.644C411.167 154.653 408.689 150.212 406.566 144.553C402.327 133.248 399.664 117.497 399.664 100C399.664 82.5032 402.327 66.752 406.566 55.4474C408.689 49.7878 411.167 45.3466 413.819 42.3562C414.487 41.6028 415.155 40.9525 415.821 40.4014C409.875 49.7365 405.664 72.9015 405.664 100C405.664 127.099 409.875 150.263 415.821 159.599ZM427.507 159.599C428.173 159.047 428.841 158.397 429.509 157.644C432.161 154.653 434.64 150.212 436.762 144.553C441.001 133.248 443.664 117.497 443.664 100C443.664 82.5032 441.001 66.752 436.762 55.4474C434.64 49.7878 432.161 45.3466 429.509 42.3562C428.841 41.6028 428.173 40.9525 427.507 40.4013C433.454 49.7365 437.664 72.9014 437.664 100C437.664 127.099 433.454 150.263 427.507 159.599ZM400.826 144.36C404.074 150.857 407.91 155.689 412.032 158.637C403.573 148.742 397.664 126.211 397.664 100C397.664 73.7889 403.573 51.258 412.032 41.3627C407.91 44.3109 404.074 49.1428 400.826 55.6396C395.201 66.8891 391.664 82.5701 391.664 100C391.664 117.43 395.201 133.111 400.826 144.36ZM442.503 144.36C439.254 150.857 435.418 155.689 431.296 158.637C439.755 148.742 445.664 126.211 445.664 100C445.664 73.7889 439.755 51.258 431.296 41.3627C435.418 44.3109 439.254 49.1428 442.503 55.6396C448.127 66.8891 451.664 82.5701 451.664 100C451.664 117.43 448.127 133.111 442.503 144.36ZM407.808 157.705C403.071 154.655 398.743 150.063 395.076 144.195C388.065 132.978 383.664 117.358 383.664 100C383.664 82.6418 388.065 67.0217 395.076 55.8052C398.743 49.9372 403.071 45.3449 407.808 42.2948C397.073 52.624 389.664 74.5815 389.664 100C389.664 125.418 397.073 147.376 407.808 157.705ZM435.52 157.705C440.257 154.655 444.585 150.063 448.252 144.195C455.263 132.978 459.664 117.358 459.664 100C459.664 82.6418 455.263 67.0217 448.252 55.8052C444.585 49.9372 440.257 45.3449 435.52 42.2948C446.255 52.624 453.664 74.5815 453.664 100C453.664 125.418 446.255 147.376 435.52 157.705ZM389.323 144.055C393.327 149.394 398.025 153.72 403.196 156.785C390.4 146.11 381.664 124.687 381.664 100C381.664 75.3126 390.4 53.8899 403.196 43.2147C398.025 46.2805 393.327 50.6063 389.323 55.9452C380.92 67.1487 375.664 82.7178 375.664 100C375.664 117.282 380.92 132.851 389.323 144.055ZM454.005 144.055C450.001 149.394 445.304 153.72 440.132 156.785C452.928 146.11 461.664 124.687 461.664 100C461.664 75.3126 452.928 53.8899 440.132 43.2147C445.304 46.2805 450.001 50.6063 454.005 55.9452C462.408 67.1487 467.664 82.7178 467.664 100C467.664 117.282 462.408 132.851 454.005 144.055ZM398.187 155.836C380.199 145.844 367.664 124.719 367.664 100C367.664 75.2809 380.199 54.1561 398.187 44.1644C383.552 55.1277 373.664 76.0242 373.664 100C373.664 123.976 383.552 144.872 398.187 155.836ZM445.141 155.836C463.129 145.844 475.664 124.719 475.664 100C475.664 75.2809 463.129 54.1561 445.141 44.1644C459.776 55.1276 469.664 76.0242 469.664 100C469.664 123.976 459.776 144.872 445.141 155.836ZM359.664 100C359.664 123.897 373.183 144.635 392.991 154.986C376.624 143.814 365.664 123.37 365.664 100C365.664 76.63 376.624 56.1857 392.991 45.0144C373.183 55.3645 359.664 76.1035 359.664 100ZM483.664 100C483.664 123.897 470.145 144.635 450.337 154.986C466.704 143.814 477.664 123.37 477.664 100C477.664 76.63 466.704 56.1857 450.337 45.0144C470.145 55.3645 483.664 76.1035 483.664 100ZM425.336 145.007C426.771 133.53 427.664 117.617 427.664 100C427.664 82.3829 426.771 66.4697 425.336 54.9932C424.617 49.241 423.771 44.6801 422.86 41.5963C422.794 41.374 422.729 41.1617 422.664 40.9594V159.041C422.729 158.838 422.794 158.626 422.86 158.404C423.771 155.32 424.617 150.759 425.336 145.007ZM420.664 40.9594V159.041C420.599 158.838 420.534 158.626 420.468 158.404C419.557 155.32 418.711 150.759 417.992 145.007C416.557 133.53 415.664 117.617 415.664 100C415.664 82.3829 416.557 66.4697 417.992 54.9932C418.711 49.241 419.557 44.6801 420.468 41.5963C420.534 41.374 420.599 41.1617 420.664 40.9594Z" fill="url(#paint2_linear_523_4397)"/>
</g>
<defs>
<linearGradient id="paint0_linear_523_4397" x1="57.332" y1="42" x2="105.332" y2="168" gradientUnits="userSpaceOnUse">
<stop stop-color="white"/>
<stop offset="1" stop-color="white" stop-opacity="0"/>
</linearGradient>
<linearGradient id="paint1_linear_523_4397" x1="226" y1="42" x2="274" y2="168" gradientUnits="userSpaceOnUse">
<stop stop-color="white"/>
<stop offset="1" stop-color="white" stop-opacity="0"/>
</linearGradient>
<linearGradient id="paint2_linear_523_4397" x1="394.664" y1="42" x2="442.664" y2="168" gradientUnits="userSpaceOnUse">
<stop stop-color="white"/>
<stop offset="1" stop-color="white" stop-opacity="0"/>
</linearGradient>
<clipPath id="clip0_523_4397">
<rect width="506" height="200" fill="white"/>
</clipPath>
</defs>
</svg>
